<mxfile host="65bd71144e">
    <diagram id="36W98JDeAzT-L6-rF6kr" name="Page-1">
        <mxGraphModel dx="2346" dy="1761" grid="1" gridSize="10" guides="1" tooltips="1" connect="1" arrows="1" fold="1" page="1" pageScale="1" pageWidth="827" pageHeight="1169" math="0" shadow="0">
            <root>
                <mxCell id="0"/>
                <mxCell id="1" parent="0"/>
                <mxCell id="456" value="" style="rounded=1;whiteSpace=wrap;html=1;" vertex="1" parent="1">
                    <mxGeometry x="-75" y="-180" width="1830" height="1950" as="geometry"/>
                </mxCell>
                <mxCell id="454" value="" style="rounded=1;whiteSpace=wrap;html=1;" parent="1" vertex="1">
                    <mxGeometry x="-200" y="-1160" width="2440" height="1030" as="geometry"/>
                </mxCell>
                <mxCell id="426" style="edgeStyle=none;html=1;entryX=0;entryY=0.5;entryDx=0;entryDy=0;" parent="1" source="424" target="425" edge="1">
                    <mxGeometry relative="1" as="geometry"/>
                </mxCell>
                <mxCell id="424" value="dev server&lt;br&gt;&lt;br&gt;calls&amp;nbsp; tpchQueryrunnerBuilder.builder().build()" style="rounded=0;whiteSpace=wrap;html=1;" parent="1" vertex="1">
                    <mxGeometry x="20" y="300" width="220" height="200" as="geometry"/>
                </mxCell>
                <mxCell id="441" style="edgeStyle=none;html=1;entryX=0;entryY=0.5;entryDx=0;entryDy=0;" parent="1" source="425" target="440" edge="1">
                    <mxGeometry relative="1" as="geometry"/>
                </mxCell>
                <mxCell id="444" style="edgeStyle=none;html=1;" parent="1" source="425" target="443" edge="1">
                    <mxGeometry relative="1" as="geometry"/>
                </mxCell>
                <mxCell id="425" value="class TpchQueryRunnerBuilder&lt;br&gt;&lt;br&gt;extends DisributedQUeryRunner.Builder&lt;br&gt;" style="rounded=0;whiteSpace=wrap;html=1;" parent="1" vertex="1">
                    <mxGeometry x="260" y="270" width="270" height="230" as="geometry"/>
                </mxCell>
                <mxCell id="428" style="edgeStyle=none;html=1;" parent="1" source="427" target="425" edge="1">
                    <mxGeometry relative="1" as="geometry"/>
                </mxCell>
                <mxCell id="427" value="class DistributedQueryRunner&lt;br&gt;&lt;br&gt;implements QueryRunner&lt;br&gt;&lt;br&gt;constructor&lt;br&gt;&lt;span style=&quot;white-space: pre&quot;&gt;&#9;&lt;/span&gt;takes session, nodeCount, extraProps, co-ord Props, environmeng, eventListeners&lt;br&gt;&lt;span style=&quot;white-space: pre&quot;&gt;&#9;&lt;/span&gt;creates testingDiscoveryServer&lt;br&gt;&lt;span style=&quot;white-space: pre&quot;&gt;&#9;&lt;/span&gt;creates coordinator and worker servers&lt;br&gt;&lt;span style=&quot;white-space: pre&quot;&gt;&#9;&lt;/span&gt;creates trinoClient&lt;br&gt;&lt;span style=&quot;white-space: pre&quot;&gt;&#9;&lt;/span&gt;&lt;br&gt;has methods&lt;br&gt;&lt;span style=&quot;white-space: pre&quot;&gt;&#9;&lt;/span&gt;createServer -&amp;gt; to create co-ord and worker servers&lt;br&gt;&lt;span style=&quot;white-space: pre&quot;&gt;&#9;&lt;/span&gt;addServers -&amp;gt; registers new worker&lt;br&gt;&lt;span style=&quot;white-space: pre&quot;&gt;&#9;&lt;/span&gt;getNodeCount -&amp;gt; returns server.size()&lt;br&gt;&lt;span style=&quot;white-space: pre&quot;&gt;&#9;&lt;/span&gt;getClient -&amp;gt; return trinoClient&lt;br&gt;&lt;span style=&quot;white-space: pre&quot;&gt;&#9;&lt;/span&gt;getDefaultSession -&amp;gt; returns session from trinoClient&lt;br&gt;&lt;span style=&quot;white-space: pre&quot;&gt;&#9;&lt;/span&gt;getTransactionManager -&amp;gt; return coord transaction manager&lt;br&gt;&lt;span style=&quot;white-space: pre&quot;&gt;&#9;&lt;/span&gt;getQueryExplainer -&amp;gt; return cord getQueryExplainer&lt;br&gt;&lt;span style=&quot;white-space: pre&quot;&gt;&#9;&lt;/span&gt;execute -&amp;gt; execeutes the query using trinoClient.execute" style="rounded=0;whiteSpace=wrap;html=1;align=left;" parent="1" vertex="1">
                    <mxGeometry x="190" y="-630" width="330" height="410" as="geometry"/>
                </mxCell>
                <mxCell id="430" style="edgeStyle=none;html=1;" parent="1" source="429" target="427" edge="1">
                    <mxGeometry relative="1" as="geometry"/>
                </mxCell>
                <mxCell id="429" value="interface QueryRunner&lt;br&gt;&lt;br&gt;has methods&lt;br&gt;&lt;br&gt;close&lt;br&gt;getNodeCount&lt;br&gt;getDefaultSession&lt;br&gt;getTransactionManager&lt;br&gt;getMetaData&lt;br&gt;getQueryExplainer&lt;br&gt;getFunctionManager&lt;br&gt;getExchangeManager&lt;br&gt;getAcessControl&lt;br&gt;execute(String sql)&lt;br&gt;execute(session, sql)&lt;br&gt;executeWithPlan(session, sql)&lt;br&gt;createPlan(session, sql)&lt;br&gt;listTables(session, catalog, schema)&lt;br&gt;createCatalog(name, connectorName, props)&lt;br&gt;" style="shape=parallelogram;perimeter=parallelogramPerimeter;whiteSpace=wrap;html=1;fixedSize=1;" parent="1" vertex="1">
                    <mxGeometry x="200" y="-960" width="320" height="310" as="geometry"/>
                </mxCell>
                <mxCell id="432" style="edgeStyle=none;html=1;entryX=0.406;entryY=0.472;entryDx=0;entryDy=0;entryPerimeter=0;" parent="1" source="431" target="427" edge="1">
                    <mxGeometry relative="1" as="geometry"/>
                </mxCell>
                <mxCell id="431" value="class TestingTrinoClient&lt;br&gt;extends AbstractTestingTrinoClient&lt;br&gt;&lt;br&gt;&lt;span style=&quot;white-space: pre&quot;&gt;&#9;&lt;/span&gt;takes coord server and defaultSession&lt;br&gt;&lt;br&gt;has methods&lt;br&gt;&lt;br&gt;execute(session, sql)&lt;br&gt;&lt;span style=&quot;white-space: pre&quot;&gt;&#9;&lt;/span&gt;creates new statementClient(httpClient, session, sql) using StatementClientFactory&lt;br&gt;&lt;span style=&quot;white-space: pre&quot;&gt;&#9;&lt;/span&gt;when client is finished with the query returns ResultWIthQUeryId" style="rounded=0;whiteSpace=wrap;html=1;align=left;" parent="1" vertex="1">
                    <mxGeometry x="550" y="-630" width="520" height="180" as="geometry"/>
                </mxCell>
                <mxCell id="435" style="edgeStyle=none;html=1;entryX=1;entryY=0.75;entryDx=0;entryDy=0;" parent="1" source="434" target="431" edge="1">
                    <mxGeometry relative="1" as="geometry"/>
                </mxCell>
                <mxCell id="434" value="&lt;div&gt;&lt;span&gt;class StatementClientFactory&lt;/span&gt;&lt;/div&gt;&lt;div&gt;&lt;span&gt;&amp;nbsp;&lt;/span&gt;&lt;/div&gt;&lt;div&gt;&lt;span&gt;has method&lt;/span&gt;&lt;/div&gt;&lt;div&gt;&lt;span&gt;&lt;br&gt;&lt;/span&gt;&lt;/div&gt;&lt;div&gt;&lt;span&gt;newStatementClient(httpClient, session, sql)&lt;/span&gt;&lt;/div&gt;&lt;div&gt;&lt;span&gt;returns StatementClientV1&lt;/span&gt;&lt;/div&gt;" style="shape=hexagon;perimeter=hexagonPerimeter2;whiteSpace=wrap;html=1;fixedSize=1;align=center;" parent="1" vertex="1">
                    <mxGeometry x="1110" y="-630" width="300" height="130" as="geometry"/>
                </mxCell>
                <mxCell id="439" style="edgeStyle=none;html=1;entryX=1;entryY=0.5;entryDx=0;entryDy=0;" parent="1" source="436" target="434" edge="1">
                    <mxGeometry relative="1" as="geometry"/>
                </mxCell>
                <mxCell id="436" value="class StatementClientV1&lt;br&gt;&lt;br&gt;implements StatementClient&lt;br&gt;takes httpClient, session, sql&lt;br&gt;&lt;br&gt;constructor&lt;br&gt;&lt;span style=&quot;white-space: pre&quot;&gt;&#9;&lt;/span&gt;set timezone&lt;br&gt;&lt;span style=&quot;white-space: pre&quot;&gt;&#9;&lt;/span&gt;builds http request using query for the api /v1/statement&lt;br&gt;&lt;span style=&quot;white-space: pre&quot;&gt;&#9;&lt;/span&gt;and executes it&lt;br&gt;&lt;br&gt;methods&lt;br&gt;&lt;br&gt;advance() -&amp;gt; generates and the requests for the next_url and executes it&lt;br&gt;&lt;br&gt;processResponse()&lt;br&gt;&lt;br&gt;" style="rounded=0;whiteSpace=wrap;html=1;align=left;" parent="1" vertex="1">
                    <mxGeometry x="1430" y="-920" width="405" height="290" as="geometry"/>
                </mxCell>
                <mxCell id="438" style="edgeStyle=none;html=1;" parent="1" source="437" target="436" edge="1">
                    <mxGeometry relative="1" as="geometry"/>
                </mxCell>
                <mxCell id="437" value="interface StatementClient&lt;br&gt;&lt;br&gt;string getQuery()&lt;br&gt;getTimeZone&lt;br&gt;getCurrentData()&lt;br&gt;getSetCatalog()&lt;br&gt;getSetSChema()&lt;br&gt;getSetPath()&lt;br&gt;getSetRoles()&lt;br&gt;advance()&lt;br&gt;close()" style="shape=parallelogram;perimeter=parallelogramPerimeter;whiteSpace=wrap;html=1;fixedSize=1;" parent="1" vertex="1">
                    <mxGeometry x="1435" y="-1120" width="290" height="170" as="geometry"/>
                </mxCell>
                <mxCell id="440" value="QueuedStatementResource&lt;br&gt;&lt;br&gt;takes &lt;br&gt;&lt;span style=&quot;white-space: pre&quot;&gt;&#9;&lt;/span&gt;sessionContextFactory, &lt;br&gt;&lt;span style=&quot;white-space: pre&quot;&gt;&#9;&lt;/span&gt;dispatchManager, &lt;br&gt;&lt;span style=&quot;white-space: pre&quot;&gt;&#9;&lt;/span&gt;responseExecutor, &lt;br&gt;&lt;span style=&quot;white-space: pre&quot;&gt;&#9;&lt;/span&gt;timeoutExecutor, &lt;br&gt;&lt;span style=&quot;white-space: pre&quot;&gt;&#9;&lt;/span&gt;queryInfoUrlFactory&lt;br&gt;&lt;br&gt;creates local QueryManager class (WHICH MIGHT BE SHARED WITH OTHER RESOURCE CLASSESS WHEN SERVER BOOTS UP)&lt;br&gt;&amp;nbsp;&lt;br&gt;&lt;br&gt;POST v1/statement/queued/ -&amp;gt; &lt;br&gt;&lt;span style=&quot;white-space: pre&quot;&gt;&#9;&lt;/span&gt;to register the query with dispatchManager.createQuery&lt;br&gt;&lt;span style=&quot;white-space: pre&quot;&gt;&#9;&lt;/span&gt;and returns empty result." style="rounded=0;whiteSpace=wrap;html=1;align=left;" parent="1" vertex="1">
                    <mxGeometry x="655" width="330" height="310" as="geometry"/>
                </mxCell>
                <mxCell id="442" value="exposes API" style="text;html=1;align=center;verticalAlign=middle;resizable=0;points=[];autosize=1;strokeColor=none;fillColor=none;" parent="1" vertex="1">
                    <mxGeometry x="560" y="240" width="80" height="20" as="geometry"/>
                </mxCell>
                <mxCell id="447" style="edgeStyle=none;html=1;" parent="1" source="443" target="446" edge="1">
                    <mxGeometry relative="1" as="geometry"/>
                </mxCell>
                <mxCell id="443" value="ExecutingStatementResource&lt;br&gt;&lt;br&gt;GET v1/statement/executing/&amp;lt;QUERY_ID&amp;gt; -&amp;gt; to get the query result if its finished executing from the exchange manager&amp;nbsp;&lt;br&gt;" style="rounded=0;whiteSpace=wrap;html=1;align=left;" parent="1" vertex="1">
                    <mxGeometry x="680" y="330" width="320" height="130" as="geometry"/>
                </mxCell>
                <mxCell id="445" value="exposes API" style="text;html=1;align=center;verticalAlign=middle;resizable=0;points=[];autosize=1;strokeColor=none;fillColor=none;" parent="1" vertex="1">
                    <mxGeometry x="560" y="440" width="80" height="20" as="geometry"/>
                </mxCell>
                <mxCell id="446" value="&lt;div&gt;&lt;span&gt;class Query&lt;/span&gt;&lt;/div&gt;&lt;div&gt;&lt;br&gt;&lt;/div&gt;&lt;div&gt;&lt;span&gt;takes&lt;/span&gt;&lt;/div&gt;&lt;div&gt;&lt;span&gt;&lt;span style=&quot;white-space: pre&quot;&gt;&#9;&lt;/span&gt;session,&lt;br&gt;&lt;/span&gt;&lt;/div&gt;&lt;div&gt;&lt;span&gt;&lt;span style=&quot;white-space: pre&quot;&gt;&#9;&lt;/span&gt;slug,&lt;br&gt;&lt;/span&gt;&lt;/div&gt;&lt;div&gt;&lt;span&gt;&lt;span style=&quot;white-space: pre&quot;&gt;&#9;&lt;/span&gt;queryManager,&lt;br&gt;&lt;/span&gt;&lt;/div&gt;&lt;div&gt;&lt;span&gt;&lt;span style=&quot;white-space: pre&quot;&gt;&#9;&lt;/span&gt;queryInfoUrl,&lt;br&gt;&lt;/span&gt;&lt;/div&gt;&lt;div&gt;&lt;span&gt;&lt;span style=&quot;white-space: pre&quot;&gt;&#9;&lt;/span&gt;exhangeDataSource,&lt;br&gt;&lt;/span&gt;&lt;/div&gt;&lt;div&gt;&lt;span&gt;&lt;span style=&quot;white-space: pre&quot;&gt;&#9;&lt;/span&gt;resultsProcessorExecutor,&lt;br&gt;&lt;/span&gt;&lt;/div&gt;&lt;div&gt;&lt;span&gt;&lt;span style=&quot;white-space: pre&quot;&gt;&#9;&lt;/span&gt;timeoutExecutor,&lt;br&gt;&lt;/span&gt;&lt;/div&gt;&lt;div&gt;&lt;span&gt;&lt;span style=&quot;white-space: pre&quot;&gt;&#9;&lt;/span&gt;blockEncodingSerde&lt;br&gt;&lt;/span&gt;&lt;/div&gt;&lt;div&gt;&lt;span&gt;&lt;br&gt;&lt;/span&gt;&lt;/div&gt;&lt;div&gt;&lt;span&gt;has methods&lt;/span&gt;&lt;/div&gt;&lt;div&gt;&lt;span&gt;&lt;span style=&quot;white-space: pre&quot;&gt;&#9;&lt;/span&gt;&lt;br&gt;&lt;/span&gt;&lt;/div&gt;&lt;div&gt;&lt;span style=&quot;white-space: pre&quot;&gt;&#9;&lt;/span&gt;cancelQUery&lt;br&gt;&lt;/div&gt;&lt;div&gt;&lt;span style=&quot;white-space: pre&quot;&gt;&#9;&lt;/span&gt;partialCancel&lt;br&gt;&lt;/div&gt;&lt;div&gt;&lt;span style=&quot;white-space: pre&quot;&gt;&#9;&lt;/span&gt;fail&lt;br&gt;&lt;/div&gt;&lt;div&gt;&lt;span style=&quot;white-space: pre&quot;&gt;&#9;&lt;/span&gt;dispose&lt;br&gt;&lt;/div&gt;&lt;div&gt;&lt;span style=&quot;white-space: pre&quot;&gt;&#9;&lt;/span&gt;getQueryId&lt;br&gt;&lt;/div&gt;&lt;div&gt;&lt;span style=&quot;white-space: pre&quot;&gt;&#9;&lt;/span&gt;getQueryInfo&lt;br&gt;&lt;/div&gt;&lt;div&gt;&lt;span style=&quot;white-space: pre&quot;&gt;&#9;&lt;/span&gt;getSchema, catalog, path, roles,&amp;nbsp;&lt;br&gt;&lt;/div&gt;&lt;div&gt;&lt;span style=&quot;white-space: pre&quot;&gt;&#9;&lt;/span&gt;getCachedResult,&lt;/div&gt;&lt;div&gt;&lt;span style=&quot;white-space: pre&quot;&gt;&#9;&lt;/span&gt;&lt;span&gt;closeExchange&lt;/span&gt;&lt;br&gt;&lt;/div&gt;&lt;div&gt;&lt;span style=&quot;white-space: pre&quot;&gt;&#9;&lt;/span&gt;waitForResult -&amp;gt; polls exchangeDataSource.pollPage to get query data&lt;br&gt;&lt;/div&gt;" style="rounded=0;whiteSpace=wrap;html=1;align=left;" parent="1" vertex="1">
                    <mxGeometry x="1140" y="370" width="410" height="410" as="geometry"/>
                </mxCell>
                <mxCell id="448" value="uses" style="text;html=1;strokeColor=none;fillColor=none;align=center;verticalAlign=middle;whiteSpace=wrap;rounded=0;" parent="1" vertex="1">
                    <mxGeometry x="1030" y="440" width="60" height="30" as="geometry"/>
                </mxCell>
                <mxCell id="450" value="class DispatchManager&lt;br&gt;&lt;br&gt;takes&lt;br&gt;&lt;span style=&quot;white-space: pre&quot;&gt;&#9;&lt;/span&gt;queryIdGenerator&lt;br&gt;&lt;span style=&quot;white-space: pre&quot;&gt;&#9;&lt;/span&gt;queryPreparer&lt;br&gt;&lt;span style=&quot;white-space: pre&quot;&gt;&#9;&lt;/span&gt;resourceGroupManager&lt;br&gt;&lt;span style=&quot;white-space: pre&quot;&gt;&#9;&lt;/span&gt;dispatchQUeryFactory&lt;br&gt;&lt;span style=&quot;white-space: pre&quot;&gt;&#9;&lt;/span&gt;failedDispatchQUeryFactory&lt;br&gt;&lt;span style=&quot;white-space: pre&quot;&gt;&#9;&lt;/span&gt;accessControl&lt;br&gt;&lt;span style=&quot;white-space: pre&quot;&gt;&#9;&lt;/span&gt;sessionSupplier&lt;br&gt;&lt;span style=&quot;white-space: pre&quot;&gt;&#9;&lt;/span&gt;sessionPropertyDefaults&lt;br&gt;&lt;span style=&quot;white-space: pre&quot;&gt;&#9;&lt;/span&gt;sessionPropertyManager&lt;br&gt;&lt;span style=&quot;white-space: pre&quot;&gt;&#9;&lt;/span&gt;queryManagerConfig&lt;br&gt;&lt;span style=&quot;white-space: pre&quot;&gt;&#9;&lt;/span&gt;dispatchExecutor&lt;br&gt;&lt;br&gt;has methods&lt;br&gt;&lt;span style=&quot;white-space: pre&quot;&gt;&#9;&lt;/span&gt;createQuery -&amp;gt;&amp;nbsp;&lt;br&gt;&lt;span style=&quot;white-space: pre&quot;&gt;&#9;&lt;/span&gt;&lt;span style=&quot;white-space: pre&quot;&gt;&#9;&lt;/span&gt;checks can we execute the query using accessConrol.checkCanExecuteQuery&lt;br&gt;&lt;span style=&quot;white-space: pre&quot;&gt;&#9;&lt;/span&gt;&lt;span style=&quot;white-space: pre&quot;&gt;&#9;&lt;/span&gt;prepares the query using queryPrepareer.prepareQuery&lt;br&gt;&lt;span style=&quot;white-space: pre&quot;&gt;&#9;&lt;/span&gt;&lt;span style=&quot;white-space: pre&quot;&gt;&#9;&lt;/span&gt;&amp;nbsp;uses dispatchEcecutor.execute" style="whiteSpace=wrap;html=1;align=left;" parent="1" vertex="1">
                    <mxGeometry x="1040" y="-90" width="520" height="430" as="geometry"/>
                </mxCell>
                <mxCell id="452" value="" style="endArrow=classic;html=1;exitX=0.682;exitY=0.806;exitDx=0;exitDy=0;exitPerimeter=0;entryX=0;entryY=0.5;entryDx=0;entryDy=0;" parent="1" source="440" target="450" edge="1">
                    <mxGeometry width="50" height="50" relative="1" as="geometry">
                        <mxPoint x="1040" y="270" as="sourcePoint"/>
                        <mxPoint x="1090" y="220" as="targetPoint"/>
                    </mxGeometry>
                </mxCell>
                <mxCell id="455" value="&lt;font style=&quot;font-size: 72px&quot;&gt;Client&lt;/font&gt;" style="text;html=1;align=center;verticalAlign=middle;resizable=0;points=[];autosize=1;strokeColor=none;fillColor=none;" parent="1" vertex="1">
                    <mxGeometry x="-125" y="-1120" width="200" height="40" as="geometry"/>
                </mxCell>
                <mxCell id="457" value="&lt;font style=&quot;font-size: 72px&quot;&gt;main&lt;/font&gt;" style="text;html=1;align=center;verticalAlign=middle;resizable=0;points=[];autosize=1;strokeColor=none;fillColor=none;" vertex="1" parent="1">
                    <mxGeometry x="-5" y="-40" width="170" height="40" as="geometry"/>
                </mxCell>
                <mxCell id="458" value="" style="rounded=1;whiteSpace=wrap;html=1;" vertex="1" parent="1">
                    <mxGeometry x="1780" y="-100" width="410" height="270" as="geometry"/>
                </mxCell>
                <mxCell id="459" value="&lt;font style=&quot;font-size: 72px&quot;&gt;parser&lt;/font&gt;" style="text;html=1;align=center;verticalAlign=middle;resizable=0;points=[];autosize=1;strokeColor=none;fillColor=none;" vertex="1" parent="1">
                    <mxGeometry x="1865" y="-40" width="220" height="40" as="geometry"/>
                </mxCell>
                <mxCell id="460" value="class SqlParser&lt;br&gt;&lt;br&gt;" style="rounded=0;whiteSpace=wrap;html=1;align=left;" vertex="1" parent="1">
                    <mxGeometry x="1850" y="80" width="190" height="40" as="geometry"/>
                </mxCell>
                <mxCell id="461" value="" style="endArrow=classic;html=1;exitX=0.692;exitY=0.814;exitDx=0;exitDy=0;exitPerimeter=0;entryX=0;entryY=0.5;entryDx=0;entryDy=0;" edge="1" parent="1" source="450" target="460">
                    <mxGeometry width="50" height="50" relative="1" as="geometry">
                        <mxPoint x="1750" y="270" as="sourcePoint"/>
                        <mxPoint x="1800" y="220" as="targetPoint"/>
                    </mxGeometry>
                </mxCell>
                <mxCell id="462" value="class QUeryStateMachine&lt;br&gt;&lt;br&gt;&lt;br&gt;methods:&lt;br&gt;&lt;br&gt;begin()" style="rounded=1;whiteSpace=wrap;html=1;align=left;" vertex="1" parent="1">
                    <mxGeometry x="45" y="940" width="495" height="290" as="geometry"/>
                </mxCell>
                <mxCell id="463" value="" style="endArrow=classic;html=1;exitX=0.173;exitY=0.837;exitDx=0;exitDy=0;exitPerimeter=0;entryX=0.75;entryY=0;entryDx=0;entryDy=0;" edge="1" parent="1" source="450" target="462">
                    <mxGeometry width="50" height="50" relative="1" as="geometry">
                        <mxPoint x="1190" y="940" as="sourcePoint"/>
                        <mxPoint x="1240" y="890" as="targetPoint"/>
                        <Array as="points">
                            <mxPoint x="1060" y="410"/>
                        </Array>
                    </mxGeometry>
                </mxCell>
                <mxCell id="464" value="ucalls" style="edgeLabel;html=1;align=center;verticalAlign=middle;resizable=0;points=[];" vertex="1" connectable="0" parent="463">
                    <mxGeometry x="0.1148" relative="1" as="geometry">
                        <mxPoint as="offset"/>
                    </mxGeometry>
                </mxCell>
                <mxCell id="466" value="" style="rounded=1;whiteSpace=wrap;html=1;" vertex="1" parent="1">
                    <mxGeometry x="780" y="780" width="860" height="550" as="geometry"/>
                </mxCell>
                <mxCell id="465" value="Class SqlQueryExecution&lt;br&gt;&lt;br&gt;has methods&amp;nbsp;&lt;br&gt;&lt;br&gt;start()" style="rounded=0;whiteSpace=wrap;html=1;" vertex="1" parent="1">
                    <mxGeometry x="835" y="980" width="295" height="120" as="geometry"/>
                </mxCell>
                <mxCell id="467" value="&lt;font style=&quot;font-size: 72px&quot;&gt;Execution&lt;/font&gt;" style="text;html=1;align=center;verticalAlign=middle;resizable=0;points=[];autosize=1;strokeColor=none;fillColor=none;" vertex="1" parent="1">
                    <mxGeometry x="827" y="860" width="330" height="40" as="geometry"/>
                </mxCell>
                <mxCell id="468" value="class SqlQueryManager&lt;br&gt;&lt;br&gt;has methods&lt;br&gt;&lt;br&gt;createQuery()" style="rounded=0;whiteSpace=wrap;html=1;" vertex="1" parent="1">
                    <mxGeometry x="1315" y="980" width="295" height="120" as="geometry"/>
                </mxCell>
                <mxCell id="469" value="" style="endArrow=classic;html=1;exitX=0.322;exitY=0.667;exitDx=0;exitDy=0;exitPerimeter=0;entryX=0.593;entryY=0.75;entryDx=0;entryDy=0;entryPerimeter=0;" edge="1" parent="1" source="468" target="465">
                    <mxGeometry width="50" height="50" relative="1" as="geometry">
                        <mxPoint x="1190" y="1060" as="sourcePoint"/>
                        <mxPoint x="1240" y="1010" as="targetPoint"/>
                    </mxGeometry>
                </mxCell>
                <mxCell id="470" value="calls" style="edgeLabel;html=1;align=center;verticalAlign=middle;resizable=0;points=[];" vertex="1" connectable="0" parent="469">
                    <mxGeometry x="-0.1048" y="3" relative="1" as="geometry">
                        <mxPoint x="-1" as="offset"/>
                    </mxGeometry>
                </mxCell>
            </root>
        </mxGraphModel>
    </diagram>
</mxfile>